<?xml version="1.0" encoding="utf-8"?>
<!-- Generator: Adobe Illustrator 21.0.0, SVG Export Plug-In . SVG Version: 6.00 Build 0)  -->
<svg version="1.1" id="Capa_1" xmlns="http://www.w3.org/2000/svg" xmlns:xlink="http://www.w3.org/1999/xlink" x="0px" y="0px"
	 viewBox="0 0 419.5 297.6" style="enable-background:new 0 0 419.5 297.6;" xml:space="preserve">
<style type="text/css">
	.st0{fill:#0B0706;}
	.st1{fill:#0E0908;}
	.st2{fill:#0B0908;}
	.st3{fill:#A47C55;}
	.st4{fill:#030202;}
	.st5{fill:#160C07;}
	.st6{fill:#1E130E;}
	.st7{fill:#1F110C;}
	.st8{fill:#1E1511;}
	.st9{fill:#2D1308;}
	.st10{fill:#251812;}
	.st11{fill:#221611;}
	.st12{fill:#363228;}
	.st13{fill:#33251C;}
	.st14{fill:#342519;}
	.st15{fill:#231914;}
	.st16{fill:#707070;}
	.st17{fill:#665A55;}
	.st18{fill:#393939;}
	.st19{fill:#2C2B2B;}
	.st20{fill:#2C2C2C;}
	.st21{fill:#818181;}
	.st22{fill:#2E1C11;}
	.st23{fill:#A07C58;}
	.st24{fill:#E31E27;}
	.st25{fill:#2D1D1B;}
	.st26{fill:#EA1B26;}
	.st27{fill:#888381;}
	.st28{fill:#381C18;}
	.st29{fill:#20150E;}
	.st30{fill:#461A19;}
	.st31{fill:#231C08;}
	.st32{fill:#070805;}
	.st33{fill:#291B1E;}
	.st34{fill:#626448;}
	.st35{fill:#3C3C41;}
	.st36{fill:#FEFEFE;}
	.st37{fill:#C4BCB8;}
	.st38{fill:#C3BDB8;}
	.st39{fill:#C1BCBA;}
	.st40{fill:#9C7B59;}
	.st41{fill:#99805E;}
	.st42{fill:#C3BFBC;}
	.st43{fill:#3E3D3C;}
	.st44{fill:#44230A;}
	.st45{fill:#593119;}
	.st46{fill:#A57C52;}
	.st47{fill:#ECECEC;}
	.st48{fill:#564B44;}
	.st49{fill:#A17A55;}
	.st50{fill:#522F12;}
	.st51{fill:#442E18;}
	.st52{fill:#27211D;}
	.st53{fill:#E8E2E0;}
	.st54{fill:#443223;}
	.st55{fill:#340804;}
	.st56{fill:#980C12;}
	.st57{fill:#947559;}
	.st58{fill:#85623F;}
	.st59{fill:#452E1A;}
	.st60{fill:#A07D56;}
	.st61{fill:#BB9F78;}
	.st62{fill:#CEB49D;}
	.st63{fill:#685B4A;}
	.st64{fill:#9D7F61;}
	.st65{fill:#1F1113;}
	.st66{fill:#B08B6B;}
	.st67{fill:#D2BB9F;}
	.st68{fill:#716C37;}
	.st69{fill:#F4F011;}
	.st70{fill:#E5E268;}
	.st71{fill:#47362D;}
	.st72{fill:#41190F;}
	.st73{fill:#170B08;}
	.st74{fill:#F3F5F3;}
	.st75{fill:#161312;}
	.st76{fill:#32261D;}
	.st77{fill:#3F220D;}
	.st78{fill:#4D3823;}
	.st79{fill:#5D0507;}
	.st80{fill:#A17E59;}
	.st81{fill:#2D120B;}
	.st82{fill:#1E0904;}
	.st83{fill:#1D110C;}
	.st84{fill:#A38A75;}
	.st85{fill:#9D7D55;}
	.st86{fill:#3A2313;}
</style>
<path class="st0" d="M373.8,256.8c-4.6,19.1-31.7,39.6-50.5,38.2c-11.3-0.9-17.5-8-21.5-18.1c-6.5-16-6.6-15.9-23.5-15.9
	c-44.7,0.1-89.3,0.3-134,0c-6.9,0-11.6,2.3-15.4,7.8c-3.3,4.9-6.6,9.8-10.2,14.5c-9,11.6-18.7,14.9-32.3,10.2
	c-14.7-5.1-26.2-14.7-33.2-29c-5.8-11.9-4.2-18.3,6.1-27c1.5-0.6,2,0.4,2.4,1.6c0.1,1.7-0.7,2.9-1.6,4.2c-6.3,9.5-6.4,15.2,0.8,24.4
	c5.9,7.5,12.9,13.7,21.3,18.4c13.9,7.8,28.6,3,34.5-10.6c1.5-2.4,3.4-4.5,4.3-7.3c2.6-8.7,5.9-11.5,14.8-12.4c3-0.3,6.1-0.2,9.1-0.2
	c44,0,87.9-0.1,131.9,0.1c7.6,0,15.2-1.8,22.8-0.1c2.2,0.5,4.5,0.6,6.6,1.6c1.9,0.9,4,1.8,4.5,3.9c0.6,3.1-2.5,2.6-4,3.4
	c-1.6,0.9-1.9,2.2-1.7,3.9c0.8,4.4,2.1,8.5,4.5,12.3c4.4,7,11.7,10.4,19.7,8.6c17.4-3.9,30-14.3,38.5-30.1c1.3-2.4,1.6-5.6,5-6.3
	C374.8,253.7,374.6,255.2,373.8,256.8z"/>
<path class="st1" d="M373.8,256.8c-0.2-1.4-0.3-2.8-1.7-3.5c-4-8-7.6-16.2-14.1-22.7c-1.5-1.5-2.4-3.3-4.9-2.9
	c-4.3-1-2.3-3.5-1.2-5.6c1.6-3.2,4.7-5,7.2-7.4c1.9-1.7,4.1-3.1,6-4.7c14.4-11.9,16-21.5,6.5-37.7c-1.2-2-2.4-4-4.1-5.6
	c-7.3-8-14.8-15.5-25.1-19.6c-11.7-4.7-22.3-0.9-28.1,10.6c-2.8,5.6-5.1,11.6-4.7,17.8c0.4,6-2.8,8.2-7.2,8.9
	c-7.7,1.1-15.5,2-23.2-0.6c-1.2-1.7-0.3-2.8,0.8-4c9.7-1.3,10.4-2.4,8.3-13.7c-0.2-0.7-0.4-1.4-0.5-2.1c-1.5-9.1-3.8-18-7.2-25.3
	c2,8.3,4.1,17.7,2.7,27.6c-1.3,3.5-0.2,7.5-2.1,10.8c-1.4,1.1-3,3.6-4-0.4c2.3-19,0.5-37.6-6.2-55.8c5.3,1.8,5.8,2,9.2,7.1
	c9.6,14,13.5,29.9,14.3,46.8c0.1,1.8-1.3,4.5,1.5,5.3c3,0.9,4.9-1.1,6-3.5c1.2-2.5,2.1-5.3,2.7-8c1.2-5.3,2.8-10.5,5.6-15.2
	c7.1-12.2,20.1-17.2,32.7-11.8c16.5,7.1,29.1,18.7,36.6,35.5c6.2,13.9,3.2,24.9-8.5,34.4c-13.4,10.9-13.3,10.8-2.7,24.2
	C373.5,241.7,377.4,248.4,373.8,256.8z"/>
<path class="st2" d="M125.6,178.5c14.6,0.9,29.4,5.6,43.1-3.9c2.8-2,6.4-2.7,9.7-4c2.1-0.8,4.2-0.8,6.8,0.4c-2,3.5-5.3,3.4-7.8,4.5
	c-6.1,2.8-12.5,5.4-14.7,12.9c0,0.1,0.3,0.4,0.5,0.4c0.2,0.1,0.5,0,0.8,0c0.7,0.1,1.2,0.5,1.6,1c1.5,2.3,0.8,5.8,3.8,7.2
	c1.9,0,1.7-1.6,1.9-2.8c0.5-2,0.9-4.5,3.3-4.6c2.1-0.1,2.3,2.4,2.9,4c1.7,4.4,4.4,4.4,7.8,2.3c4.4-2.7,8.1-6.1,10.8-10.7
	c1.3-2.1,1.7-5.8,5.7-4.8c0.7,0.9,1.1,2,1.1,3.2c-3.9,19.2-27.1,29.5-41.2,18.3c-3.5-2.8-6.5-6-6.3-10.9c0.2-5.2-2.7-5.9-6.8-5.8
	c-6.3,0.1-12.7,0-19,0c-3.8,0-7.6-0.4-11.2-2c-3-1.4-8.8-2-2.8-7.3c0.8-0.7,0.6-1.9,0.2-2.9c-0.4-1-1-1.8-1.4-2.7
	c-11.8-22.3-24.7-25.2-44.7-9.9c-3.1,2.3-6,4.8-8.5,7.7c-2.2,2.8-4.6,5.5-6.3,8.7c-6.4,11.4-4.7,21.2,5.3,29.4
	c2.8,2.3,5.4,4.6,8,7.2c3.2,3.4,6.2,6.9,6.8,11.8c0.1,2.2,0.1,4.5-1.6,6.2c-1,1.2-2.8-2.1-3.5,0.6c-0.6,0.2-1.3,0.2-1.9,0
	c-0.9-0.6-1.6-1.3-0.9-2.5c3-4.4,2.2-8.1-1.6-11.5c-4-3.6-8-7.2-11.8-11c-8.4-8.7-10.3-18.1-5-29.1c8.2-17,22-27.6,39.5-32.7
	c8.1-2.4,14.8,1.7,20.4,7.6C115.6,160.4,119.8,170,125.6,178.5z"/>
<path class="st3" d="M187.6,18c0.8,0.9,0.9,1.8,0.2,2.8c0.5,0.6,0.7,1.2,0.7,2c-2.3,6.3-5.1,12.4-9.8,17.2c-4.9,5-9,4.5-13-1.2
	c-2.9-4.1-5.4-8.6-6.4-13.7c-0.9-1.5-1.7-3.1-3.6-3.6c-0.8-0.6-0.7,1.3-0.4,0.3c0.1-0.2,0.2,0,0.5,0.1c2.8,0.9,3.5,3.3,3.8,5.9
	c-5.5,7.7-12.1,3.9-18.5,2c-3.6-2.6-4.7-5.2,0.5-6.7c4.9-1.5,7.1-5.2,9.6-9.2c4.4-7.2,10.2-12,19.3-9.5
	C177.4,7.2,182.4,12.8,187.6,18z"/>
<path class="st4" d="M119.1,74.2c-1-4.6-1.9-9.1-4.8-13.3c-4-5.7-2.3-9.2,4.3-11.8c1.4-0.6,2.8-0.9,3.7,0.9
	c-0.5,2.3-2.7,1.9-4.3,2.8c2.7-0.5,5.1-2.1,7.8-2.2c0.7-0.1,1.4-0.1,2.1-0.2c1.8-0.1,3.5-0.6,5.3,0c4.2,1.7,8.6,3,13,4.3
	c4.4,1.6,8.5,4,12.8,5.9c1.4,0.6,2.7,1.2,3.9,2.1c3.9,6.8-1.3,9.6-5.7,11.5c-10.7,4.6-21.7,6.3-32.5-0.3c-0.9-0.5-1.8-0.8-2.8-0.3
	C121,74.1,120.2,74.7,119.1,74.2z"/>
<path class="st5" d="M212,139.6c0.1-4.8-3.1-6.5-8-4c-3.1,1.6-5.8,4-8.8,5.9c-2.3,1.5-4.6,3.2-7.6,2.8c-0.8-0.9-0.9-1.9-0.5-3.1
	c6.8-3,11.3-9.2,17.5-13.1c1.6-0.3,3.3-0.3,4.5-1.6c11.6-9.2,23.9-17.4,34-28.4c4.3-4.7,8.3-9.8,11.6-15.3
	c8-13.2,2.5-24.1-12.8-25.3c-2.5-0.2-5.1,0.1-7.6-0.4c-1.4-0.4-2.8-1-3-2.8c0.5-1.5,3.3-1.7,2.9-3.2c-3-9.9,4-5.9,8-6.2
	c1,0.5,1.9,1.2,1.7,2.5c-1.4,0.7-4.2,1.3-1,3.2c3,1.8,6.3,3.1,9.5,4.6c10.5,4.9,13.9,13.1,9.6,24c-3.7,9.5-9.8,17.3-17,24.4
	c-2.3,2.3-4.8,4.7-6.4,7.5c-3.1,5.2-7.8,10.9,1,15.6c0.8,0.4,1,2.2,1.4,3.4c-0.3,0.2-0.6,0.3-0.9,0.5c-2.4-0.5-4.8-1.7-7.1,0.7
	c-1.3,1.4-3,2-4.7,0.3c0.2-4.8,1.9-9.2,2.5-14.2c-4.7,5.5-11.1,8.7-16.5,13c2.5,5.8,7.5,3,11.3,4.2c-0.1,7-6.9,7.9-10.3,11.9
	c-1.1,0.4-2.1,0.4-3.1-0.1C210.1,144.2,211.3,141.9,212,139.6z"/>
<path class="st6" d="M187.4,22.7c0.1-0.6,0.2-1.3,0.3-1.9c9.5,0.6,19.2-0.6,27.7,5.5c1.5,1.1,2.1-0.4,2.6-1.6
	c0.5-1.2,0.9-2.4,1.5-3.5c7.2-15.4,16.2-20.7,28.9-16.9c16,4.7,23.3,15.6,21.8,32.2c-0.4,4.9-1.3,9.7-0.8,14.7
	c0.6,5.3-2.1,6.6-6.4,4.1c-2.6-1.5-5.2-3.2-6.8-6c-0.5-0.7-0.4-1.3,0.3-1.8c1.9-0.4,3.4,0.5,5,1.3c2.4,1.2,3.3,0,3.3-2.3
	c-0.1-4.7,1.4-9.2,1.5-13.8C266.6,18.9,252,6,238.8,7.9c-4.3,0.6-7.4,3.1-10,6.5c-2.5,3.3-4.1,7.1-5.6,10.9
	c-3.2,8.3-3.5,8.7-11.2,4.3c-6.2-3.6-12.3-1.4-18.4-0.9C189.7,28.6,187.8,26.5,187.4,22.7z"/>
<path class="st7" d="M187.4,22.7c2.3,1.5,2.9,5.3,6.6,4.7c1.8,4.1-2.4,4.1-3.9,5.9c-2.3,2.6-6.7,2.8-5.9,8.5
	c0.6,3.7-5.9,1.4-7.5,4.8c-2.2,1.4-0.7,3.2-0.6,4.9c-1.2,3.6-2.8,7.1-4.1,10.7c-0.5,1-1.3,1.7-2.3,2.1c-2.9,1.5-5.1-1.2-7.8-1.2
	c-1.3,0.1-2.4,0.1-3.3-1.1c-1.9-2.1-4.7-2.7-6.8-4.4c-1.5-1.2-1.9-2.4,0.8-2.3c12,4.4,11.9,4.3,17-5.5c1.4-2.7,0.8-3.7-1-5.7
	c-5.7-6.2-10-14.2-20.8-10.8c-2.1,0.7-5.5-0.6-7.6-2.9c-0.6-0.7-0.6-1.4,0.2-2.1c4.1,2.4,8.6,2.7,13.1,2.2c2.5-0.3,5.2-0.7,4.8-4.4
	c-0.5-1.6,0.2-2,1.6-1.6c2.5,5.6,4.3,11.7,9.2,15.8c1.5,1.2,3.7,4.5,5.4,1.2c1.7-3.2,7.8-3.7,5.5-9.2c-0.3-0.6-1.1-1.5-0.2-1.5
	C185.4,30.7,183.9,24.3,187.4,22.7z"/>
<path class="st8" d="M173.7,120.5c-0.2-1.2-0.5-2.5-0.6-3.7c-0.6-7.3-2.1-13.1-11.6-10.1c-2.7,0.9-5.9,0-8.9,0
	c-9.9-1.7-15.6-9.8-22.9-15.4c-0.2-1.4,0.6-2,1.7-2.5c2.6-1.1,4.9-0.8,6.6,1.8c8,12.6,19.8,12.7,32.4,9.9c2.5-0.5,4.9-1.5,7.5-1.1
	c0.7,0.1,1.4,0.4,2.1,0.9c0.8,0.9,1,1.9,0.8,3.1c-0.3,0.7-0.9,1.1-1.6,1.4c-3.9,3.5-3.4,8.7,1.5,14.9c0.2,0.8,0.2,1.6,0,2.3
	c-1.4,2.1-3.3,2.3-5.4,1.7C174,122.8,173.1,122,173.7,120.5z"/>
<path class="st9" d="M256.5,47.1c-0.1,0.7-0.1,1.3-0.2,2c-3.4-5.8-7.9-2.9-12.3-1.7c-0.6-0.5-1.2-1-1.8-1.5c-0.6-3,6.4-2.9,2.8-7.1
	c-0.4-0.6-0.7-1.2-1-1.8c-0.9-1.9-1.7-3.7-3-5.3c-1.9-2.3-3.9-5.7-7.2-3.1c-2.8,2.1-4.7,5.5-1.2,9c0.9,2.6,6.9,1.5,4.6,6.5
	c-4.4,1.6-8.8,3.3-12-2.1c-2.6-4.6-0.8-13.6,3.6-17.8c4.3-4.1,9.1-3.9,12.9-0.2C248.4,30.4,254.8,37.3,256.5,47.1z"/>
<path class="st10" d="M140.5,28.3c-0.1,0.7-0.1,1.4-0.2,2.1c-5.6-3.3-5.7-6.7,0.7-8.5c5.9-1.6,7.1-6.9,10-10.8
	c6.7-9.2,12.8-11.1,22.8-6.7c-0.2,2.5-1.5,2.3-3.1,1.4c-7.7-2.4-13.2,0.9-17.4,7.2c-3.4,5.1-6,10.8-13.1,11.8
	C137.8,25.2,140,27.1,140.5,28.3z"/>
<path class="st11" d="M241.1,130.2c-1.3,8.8,7.5,12.8,9.1,20.3c-0.3,0.2-0.6,0.4-0.9,0.6c-0.7,0-1.3-0.2-1.9-0.5
	c-1.7-1.2-3.1-2.7-4.5-4.2c-2.2-3.5-4.5-2.7-6.7-0.1c-1.2,1.1-2.4,2.3-3.7,3.3c-1.1,0.7-2.3,1.3-3.4,1.9c-0.6,0.3-1.2,0.6-1.8,0.9
	c-1.3,0.5-2.6,0.8-4,0.2c-2.2-3.3,0.7-4.7,2.5-6.1c5.8-4.6,10.7-10.1,15.2-16.1L241.1,130.2z"/>
<path class="st12" d="M277.4,176.7c0.9,1.8,2,0.9,3.1,0.3c1.1,1.1,1.2,2.3,0.2,3.6c-0.5,0.9-1,1.7-1.5,2.6
	c-3.9,3.5-8.4,2.2-12.9,1.7c-2.3-1-5.2-1.2-5.8-4.5c1.7-2.2,4.3-2,6.6-2.2c1.5-0.1,3,0.4,4.5,0.1
	C274.6,181.6,276.1,179.4,277.4,176.7z"/>
<path class="st13" d="M170.8,5.8c1-0.5,2.1-0.9,3.1-1.4c6,3.1,11.3,6.9,13.7,13.6C180.6,15.8,177.5,8.2,170.8,5.8z"/>
<path class="st14" d="M131.2,89.8c-0.5,0.5-1,0.9-1.5,1.4c-5.7-4.2-9.2-9.9-10.6-17c0.6-0.6,1.1-1.2,1.7-1.8
	C125.6,77.4,129.1,83.2,131.2,89.8z"/>
<path class="st15" d="M271.7,178.1c-0.6,1.5-1.8,1.9-3.3,1.9c-3-1.9-4.9-4.9-7.3-7.4c-1.1-1.6-1.8-3.3-1.2-5.3
	c0.5-1.1,1.2-1.9,2.6-1.4C265.6,170,268.7,174.1,271.7,178.1z"/>
<path class="st16" d="M152.7,55.3c0.1,4,5.9,2.7,6,6.7c-4.1-2-8.2-4-12.3-6c-0.4-1.3-2.3-1.5-2.4-3
	C147.6,51.2,150.1,53.6,152.7,55.3z"/>
<path class="st17" d="M262.5,165.9c-0.6,0.6-1.3,1.2-1.9,1.9c-3.9,0.2-4.5-3.6-6.7-5.6c-0.8-1.2-1.5-2.4-1.2-4
	c0.5-1,1.2-1.8,2.4-1.9C257.6,159.5,260,162.7,262.5,165.9z"/>
<path class="st18" d="M128.1,52.3c-0.6,0-1.1,0-1.7,0c-1.2-1.4-3.5,0.3-4.4-1.7c-1.1-0.5-2.2-1-3.3-1.5c5.3-2.4,10.6-1.8,15.9,0.1
	C132.7,50.8,129.7,50.1,128.1,52.3z"/>
<path class="st19" d="M67,229.7c0.6,0.6,1.1,1.2,1.7,1.8c-0.1,5.1-2.8,7.5-7.6,7.9c-0.6-0.6-1.2-1.2-1.7-1.7
	C61.9,235,64.5,232.3,67,229.7z"/>
<path class="st20" d="M128.1,52.3c0.6-4.2,4.1-2.6,6.4-3.2c3.5,0.3,6.9,0.5,9.3,3.6c-3.9,1.1-7.4,0.2-10.8-1.9
	C131.4,51.4,129.8,51.9,128.1,52.3z"/>
<path class="st21" d="M133.1,50.9c3.6,0.6,7.2,1.2,10.8,1.9c0,0,0.2,0.2,0.2,0.2c0.8,1,1.6,2,2.4,3
	C142.1,53.9,136.3,55.9,133.1,50.9z"/>
<path class="st22" d="M255.1,156.3c-0.6,0.7-1.3,1.4-1.9,2.1c-4.7-1.2-5-4.2-3-8c0,0,0,0,0,0C253.2,151.2,254,153.9,255.1,156.3z"/>
<path class="st23" d="M163.5,189.5c-0.6,1.1-1.1,3.1-1.7,3.1c-2.4,0.1-1.5-2.1-1.4-3.3c0.4-5.1,3.8-8.1,7.5-11
	c4.6-3.6,9.9-5.7,15.8-6.7c-1.7-2.1-3.6-0.4-5.2-1.2c5.6-2.6,11.2-2.1,16.8,0.1c1.8,3.1,5.8,4.5,6.5,8.5c-0.1,0.3-0.3,0.6-0.4,0.9
	c-3.7,6.1-7.1,12.3-13.2,16.5c-8.5,5.9-11.8,4.5-13.1-6.1c-2.2,0.6-1.9,2.5-2.2,4.1c-0.4,2,3.4,5.3-1.1,5.9
	c-3.5,0.5-6.3-1.8-6.9-5.7c-0.3-1.7,0.1-3.6,0.2-5.4c0.3-1.7,0.5-3.4,2-4.5C165.5,186.2,165.1,188.4,163.5,189.5z"/>
<path class="st24" d="M147.6,162.3l0.2,0c-2.1-5.3-4.1-10.5,0.9-15.4c5.5,2,10,5.7,15.1,8.4c5.1,2.7,4.9,6.5,0.4,11.8
	C157.7,169.1,152,168.2,147.6,162.3z"/>
<path class="st25" d="M147.6,162.3c5.3,3,10.8,4.7,16.9,3.7c3.6-1.4,3.2-8.1,8.8-6.9c1.8,0.7,1.4,2.4,1.8,3.7
	c-5.7,8-13.5,9.8-22.5,7.7c-1.4,0.1-2.6-0.1-3-1.8C148.8,166.7,145.8,165.3,147.6,162.3z"/>
<path class="st26" d="M151.8,140.2c0.6-1,1.9-1.7,2.9-2.7c2.4-0.5,1.2-3.5,3.1-4.8c3.3-2.1,8.1-3.7,9.2-0.1c0.1,2.3-3.4,6.9-4.7,8.7
	c-4.3,0.3-1.7,4.6-3.4,6.4c-4,1.4-5.9-2.2-8.3-4.4C150.5,142.2,151.2,141.8,151.8,140.2z"/>
<path class="st27" d="M212.1,145.6c1,0,1.9,0,2.9-0.1c2.9,0.6,6.4,1.4,6.6,4.8c0.2,3.7-3.3,4.4-6.3,4.8c-2.7,0.2-4.7-1.3-6.6-3
	c-2.3-2.3-5.1-4.6-1.4-8C209.2,144,210.8,144.4,212.1,145.6z"/>
<path class="st28" d="M152.1,136.6c1.5,0.7,2.3,0.2,2.1,1.4c-2.3,4.2-2.9,8.3-4.9,9.6c-4,4.6-1.2,9.8-1.4,14.8
	c-5.8-3.1-2.7-8.4-2.7-12.7C145.3,145.8,149.9,139.7,152.1,136.6z"/>
<path class="st29" d="M173.7,120.5c0.7,0.7,1.4,1.5,2.1,2.2c-2,5.1-5.6,8.2-11.4,8.9c-1.8-1.3-1.9-2.1-1.3-4.3
	C166.7,125,170.2,122.8,173.7,120.5z"/>
<path class="st30" d="M163.1,127.3c0.6,1.6,0.8,2.1,1.3,3.7c0.8,0.9-1,0.2-1.8,1c-0.8,0-1.2,0.6-2.2,0.8c-1.1,0.3-1.7,0.8-2.6,1.4
	c-1.1,0.7-2.2,3.5-3.7,3.7c-0.6,0.1-1.2-0.7-2.1-1.4C155.1,132.7,158.7,129.4,163.1,127.3z"/>
<path class="st31" d="M208.8,152.2c2.1,0.5,4.1,1.1,6.2,1.6c0.8,0.5,1.8,0.8,2.5,1.6c0.9,1.5,1.6,3,1,4.8c-2.1,2.8-3.9,1-5.8-0.4
	c-1.7-0.8-3.1-0.1-4.5,0.9c-0.8,0.6-1.7,1.1-2.8,1.2c-1.1-0.3-1.9-0.8-1.2-2.2C204.5,156.4,209.4,156.1,208.8,152.2z"/>
<path class="st32" d="M201.4,183.4c0-1.1-0.1-2.2-0.1-3.3c0,0-0.2-0.1-0.2-0.1c0.7-0.8,1.4-0.8,2.2-0.1c5.4,0,5.1-2.4,2.3-5.7
	c-0.5-0.8-0.4-1.6,0.3-2.2c2.4-1,4,0.1,5.4,2c1,2,1,4.2,0.5,6.3c-0.7,2.2-2.2,3.7-4.4,4.4C205.3,185.1,203.2,184.9,201.4,183.4z"/>
<path class="st5" d="M187.9,141.4c-0.1,1-0.2,1.9-0.3,2.9c-6.1-1-6.3,4.1-7.8,7.9c-1,0.9-2,0.8-3,0.1c-0.9-1.9,0-3.7,0.5-5.5
	c1.3-2.9,0.1-6.8,3.2-9.1c1.1-0.3,2.2-0.1,3.2,0.4C185.4,138.8,187.1,139.5,187.9,141.4z"/>
<path class="st25" d="M176.8,151.9c1,0.1,2,0.2,3,0.3c-0.2,4.2-2.5,7.4-4.7,10.7c-0.5-1-1-2-1.5-3c-0.6-0.9-1-1.9-0.9-3
	c0.2-1.8,0.9-3.4,2.2-4.8C175.5,151.6,176.1,151.5,176.8,151.9z"/>
<path class="st33" d="M203.4,179.9c-0.7,0-1.5,0.1-2.2,0.1c-0.7-3.9-7-4.3-5.9-9.4C200.3,171.5,202.5,175.1,203.4,179.9z"/>
<path class="st34" d="M205.8,171.5c-0.1,0.9-0.1,1.7-0.2,2.6c-4.8-4.4-3.7-9.3-1.4-14.4c0.5,0.6,1,1.2,1.5,1.7
	c1.4,2.6,0.4,5.5,1,8.2C206.7,170.4,206.4,171,205.8,171.5z"/>
<path class="st35" d="M212.1,145.6c-1.7-0.1-3.9,1.4-4.7-1.4c1.5-1.5,3.1-3.1,4.6-4.6C213.6,141.6,212.1,143.6,212.1,145.6z"/>
<path class="st36" d="M201.4,183.4c2,0,3.9,0,5.9-0.1c0.6,0.5,1,1.1,1.1,1.9c-1.2,14.6,8,22.1,21.7,17.5c8.3-2.8,14.1-8.6,18.3-16.3
	c4.8-6.3,10.8-5.3,17-3c4.6,0.5,9.2,0.7,13.7-0.1c2.5,0.1,5.1,0.5,7.5,0.4c6.2-0.5,13,2.1,18.6-1.8c5.1-3.5,1.4-10,3.5-15.1
	c2.5-5.9,4.1-12.2,8.8-16.8c7-6.9,15.2-9.3,24.3-5.2c10.8,4.8,20.4,11.3,27.2,21.5c11,20,9.4,30.7-6.8,46.7c-0.9,0.9-1.7,2-2.4,3
	c-2.6,2.9-5.3,5.8-7.8,8.8c-2.5,3.1,0.5,2.1,1.8,2.3c14.6,10.9,17.2,23.2,7.4,38c-6.3,9.5-15.2,16.3-26,19.1
	c-11.8,3-23.3,1.6-31.6-13.5c-1.1-2.8-2.2-5.6-3.4-8.4c3.8-1.6,6.9,1,11.7,0.7c-6.8-5.1-13.5-5.4-19.9-5.4
	c-50,0-100.1,0.3-150.1,0.3c-7.1,0-13.6,1.4-19.8,5.9c4.3,2.8,2.9,5.9,0.1,9c-1.7,1.9-3.3,3.9-4.9,5.8c-7.5,9.5-17.2,9.9-27.5,6.7
	c-13-4-22.9-11.6-28.3-24.9c-3.2-7.9-3.1-14.9,3.1-21.4c2.1-2.2,4.2-4.5,5.4-7.4c0.4-0.5,0.7-1.1,1.1-1.6c0.3,0.6,0.5,1.3,0.8,1.9
	c1.6,1.9,1.6,3.7,0.9,4.6c0.5-2.8,2.3-6.6,0.6-10.9c-0.7-4.4-3.7-7.4-6.2-10.7c-1.4-2.8-3.8-4.9-5.9-7.1
	c-11.2-12.2-12.3-20.7-4-34.7c0.9-1.6,1.2-3.4,2.4-4.8c5.9-8.1,13.7-13.7,22.8-17.4c9.9-4,17.6-2.2,24.8,5.9
	c5.7,6.4,9.6,13.9,13.7,21.9c-2.7,0.2-4.9,0.4-8.4,0.6c15.4,7.5,30.6,3.3,45.3,5c-4.6,16.6,12.4,24.8,24.4,19.6
	C191.2,199.5,199.3,194.3,201.4,183.4z"/>
<path class="st37" d="M303.7,270.4c7,6.2,13.1,13.3,23.9,12.9c16.4-0.7,35.5-17.1,38-33.6c0.6-4.3-1.7-7.5-3.5-10.7
	c-2.4-4.2-5.4-8.1-8.2-12.1c0.5-1.2,2.3-2.8,2.4-2.4c4.5,10.1,16.2,16,15.8,28.8c-5.6,17.8-18.2,29-34.6,35.6
	C319.6,296.2,308.5,289.7,303.7,270.4z"/>
<path class="st38" d="M70,231.2c0.7,2.7-1.3,4.4-2.7,6.1c-10.1,12.1-7.8,19.5,3.1,33.5c6.2,8,15.8,11.7,25.7,13.7
	c8.3,1.7,14.5-2.9,21.2-6.3c-6.3,11.8-16.9,16.5-28.9,12.6c-11.7-3.8-20.9-11.2-28.4-20.9c-9.1-11.8-8.8-19.5,1-30.5
	c3.2-1.9,5.8-4.5,7.6-7.9C69.1,231.1,69.5,231,70,231.2z"/>
<path class="st39" d="M359.9,215.7c0.2-3.4,2.9-5.6,4.9-7.6c11.5-11.5,10.8-24.6,5.5-38.4c-0.5-1.2-0.7-2.4-1.1-3.6
	C385.8,185.1,382.9,200.7,359.9,215.7z"/>
<path class="st40" d="M282,165.9c0.3-10.8-1.4-21.4-2.9-32.2c6.7,9.2,9.8,19.6,10.7,30.9c-2,1.9-4.4,2.3-6.9,2
	C282.5,166.3,282.2,166.1,282,165.9z"/>
<path class="st41" d="M280.7,180.5c-0.1-1.2-0.1-2.4-0.2-3.6c0.5-3.7,1-7.4,1.5-11c0,0,0.5,0.4,0.5,0.4c2.8,4.9,5.2,2.4,7.6-0.5
	c2.2,3.5,1.7,7.6,1.1,11.1C290,183.7,285,181.8,280.7,180.5z"/>
<path class="st40" d="M290.1,165.8c-0.7,2.6,0.8,6.6-4.1,6.5c-4.4-0.1-3.4-3.3-3.4-5.9c2-2.2,4.7-1.8,7.2-1.8
	C290,164.9,290.1,165.3,290.1,165.8z"/>
<path class="st42" d="M59.6,167.8c0,5.4-3.9,9.3-4.9,14.5c-1.8,8.6,0.1,15.5,5.9,21.9c2.6,2.9,6,5.6,6.5,10.1
	c-2.1-1.7-4.4-3.3-6.4-5.2C45.5,195.1,45.2,183.1,59.6,167.8z"/>
<path class="st43" d="M73.3,225.1c2.1,6.9,2.1,7.1-1,13.7c-1.2-2.4-0.6-4.9-0.5-7.3C74.2,229.8,72.5,227.1,73.3,225.1z"/>
<path class="st44" d="M163.5,189.5c1.1-4.4,4-7,8.2-8.5c-2.2,2.8-4.4,5.6-6.6,8.4C164.5,189.5,164,189.5,163.5,189.5z"/>
<path class="st45" d="M160.1,24.4c-0.5,0.5-1.1,1.1-1.6,1.6c-1.6-2.4-3.4-4.3-6.8-2.9C155.4,18.6,158,19.9,160.1,24.4z"/>
<path class="st46" d="M187.9,141.4c-1.6-0.6-3.3-1.2-4.9-1.8c-0.8-6.1,3.9-6.8,7.7-8.4c3.1-1.3,7.1-1.5,7.6-6.1
	c16.3-10.3,19.5-26.6,19-44.3c-0.1-3.5,3.4-10-5-9.1c-0.7,10.4-19.5,26.3-34.4,28.9c-9.5,2.2-19,4.9-28.9,1.7
	c-4.8-1.6-8.9-4.1-11-8.7c-1.5-3.3-3.3-4.7-6.8-3.7c-4.9-4.9-7.9-11-10.5-17.4c-0.1-2.3-0.4-4.6,2.9-1.8c11.3,9.5,23.2,6.1,34.9,0.9
	c3.1-1.4,6.6-3.7,3.4-8.3c2.5-2.7,4.7,1,7.1,0.3c4.5-0.4,8.9,0.8,14.1,0.6c-2.5-3.6-1.8-7.7-2.2-11.6c0.4-4.3-5.5-2.8-5.8-6.4
	c1.9-2.2,2.7-5.7,7.1-4.2c0.8,0.3-2.6-4.2,0.9-6c2.6-1.4,5.1-3.3,7.1-5.5c1.2-1.3,2.7-1.1,3.9-1.8c0.2-0.1,0.3-0.4,0.3-0.6
	c0-0.2-0.3-0.4-0.4-0.6c8.8-4.1,16.8-2.1,24.6,4.3c1.7-4.4,3.1-8.4,4.9-12.2c5.3-11.3,12.4-15.6,22-13.4
	c13.1,3.1,22.8,13.3,22.7,24.6c-0.1,7.5-2.2,14.8-1.3,22.8c-4.8-0.6-7.1-4.5-10.5-6.3c-4.5-6.6-8.7-13.3-13.6-19.6
	c-2.8-3.7-6.6-7.1-11.7-3.6c-4.5,3.1-7.2,13.8-4.6,17.6c3.2,4.7,7.3,1.7,11.1,1.2c1.9-2.7,4.5-4.3,7.9-4.2c2.1-0.1,3.4,1.2,3.6,3
	c0.3,2.1-2,1.7-3.1,2.4c-1.2,0.8-2.6,1.3-3.9,2c-2.5,0.2-5,0.4-7.6,0.6c0.2,3,3.8,3.2,4.4,6.3c-2,1.7-4.6,0.8-6.9,1.4
	c-2.8,2.6-7,1.6-9.9,3.9c3.9-2.6,8.5-1.7,12.8-2.5c5.5,0.1,11.1-0.5,16.4,2.1c7.6,3.6,10.5,10.1,8.4,18.4c-2,7.8-6.9,13.7-11.9,19.5
	c-11.2,13.1-24.9,23.3-38.9,33.1c-0.7,0.4-1.4,0.3-1.6-0.5c-0.4-1-0.6-1.1-1.5-0.2C200.4,133.3,196.4,140.4,187.9,141.4z"/>
<path class="st47" d="M122,50.6c1.4,0.8,3.7-0.9,4.4,1.7c-3.8,0-7.2,1.1-10.5,4.7C115.4,51.1,119,51.2,122,50.6z"/>
<path class="st48" d="M217,155.3c-0.7-0.5-1.4-1-2-1.5c12.8-2.6-0.3-5.5,0.1-8.2c2.3-5.2,9.5-5.6,10.9-11.7c0.2-1.2,0.9-1.9,2.2-2
	c1.2-0.3,3-0.3,3.4-1.1c2.9-5.8,6.1-3.8,9.5-0.6c-1,8.5-8.3,11.7-13.3,16.9c-1.4,1.5-5.1,1.5-3.3,5.1c0.3,0.7,0.2,1.4-0.4,2
	C221.8,155.5,219.6,156.9,217,155.3z"/>
<path class="st49" d="M228.1,131.9c-0.7,0.7-1.5,1.4-2.2,2c-6.4,7.6-10,0.5-14.7-3.1c7.2-5.4,14.3-10.6,22.7-16.9
	C231,120.8,232.7,127.2,228.1,131.9z"/>
<path class="st50" d="M235,55.6c-4.6,1.1-9.2,2.2-13.8,3.4c2.9-3.8,7-3.9,10.9-4.7C233.1,54.7,234,55.2,235,55.6z"/>
<path class="st51" d="M205.8,128.1c1-2.9,2.9-5.1,5.5-6.8c1.4,3.5-3.8,4.3-2.4,7.5C207.4,130.8,206.5,129.8,205.8,128.1z"/>
<path class="st52" d="M182.9,51c1.2,4-0.7,8.4,1.3,12.5c1.2,2.4-1.8,2.5-2.9,2.6c-4.2,0.3-8.4-0.4-12.2-2.5c0.6-0.7,1.3-1.3,1.9-2
	c3-3.3,4.2-8.4,9.2-9.9C181,51,181.8,50.4,182.9,51z"/>
<path class="st53" d="M181.4,52.7c-0.2,0.9-0.5,1.9-0.7,2.8c-5.2-2.2-6.1,1.2-6.2,5.2c-0.2,4.9-2.1,1.3-3.4,0.8
	c0.8-3.9,1.8-7.7,4.4-10.9C179,46.4,180.4,48.9,181.4,52.7z"/>
<path class="st54" d="M181.4,52.7c-1.3-2.9-2.9-4.7-6.1-2.1c-4.1-1.3-2.7-2.9-0.2-4.5c3.3,0.3,6.8,0.5,7.7,4.8
	C182.4,51.5,181.9,52.1,181.4,52.7z"/>
<path class="st55" d="M177.9,100.5c12.8-6.8,25.5-13.8,33.4-26.8c-1-1.9-3.7,0-4.5-3c0.3-0.2,0.9-0.8,1.6-1c5-1.4,9,0.6,12.4,3.9
	c2.9,2.9,1.6,2.4-1.4,1.9c-1.9-0.3-0.6,2.3-0.5,3.6c1.6,12.8-1.3,24.7-7.4,35.7c-2.9,5.2-7.3,9.2-13,11.3c-0.6-0.5-1-1.1-1.1-1.9
	c0.4-3.5,3.8-4.6,5.4-7.1c0.9-0.4-0.7-1.5,0-0.7c0.3,0.3,0.2,0.6-0.2,0.7c-7.4,1.8-14.5,5.8-22.5,4.1c-0.1-0.7-0.2-1.3-0.3-2
	c-2.6-5-3.3-10.1-1.3-15.4c0.5,0,1,0,1.6,0c4.1,0.4,4,3.9,4.7,6.8c0.3,1.5,0.3,3.4,2.3,3.5c2.2,0.1,3-1.9,3-3.7
	c0.1-5.8,2.8-10.4,6.4-14.5c4.6-5.3,9.5-4.5,12.6,1.3c4.3-5,7.1-10.8,5.1-18.9c-6.5,10.1-16,15.9-25.5,21.7
	c-2.6,1.6-5.2,3.5-8.3,0.9C179.5,100.7,178.7,100.6,177.9,100.5z"/>
<path class="st26" d="M180.2,121.2c8.2-1.7,16-5.5,25-4.6c-0.9,4.4-4.8,4.9-6.8,7.4c-0.6,0.8-1.1,2.3-1.9,2.2
	c-8.3-0.3-10.9,6.9-15.1,11.8c-2.8,2.4,0.1,6.7-2.9,8.9c-2.6,0.8-4,2.3-2.9,5.2c-0.6,1.5-1.1,3-1.7,4.5c-5.7-2.1-11.9-3.2-15.3-9.2
	c1-2.2-3.1-7.2,3.3-6.6c1.7-1.7,4.2-0.9,6.2-1.9c0.6-2.8-3.7-2.2-3.3-4.9c0.1-0.7,0.1-1.4,0.2-2.1c3.6-3.1,7.3-6.3,10.9-9.4
	C177.3,122.5,179.1,122.9,180.2,121.2z"/>
<path class="st56" d="M180.3,100.8c13-3.9,23.1-11.8,31.2-22.6c1.2-1.6,1.6-3.8,4.8-5.2c-0.7,8.2,3.9,16.6-4.7,22.6
	c-2.8,2,1.1,8.4-4,7.5c-3.4-0.6,1.4-4.9-0.4-7.2c-3-4-6.5-2.1-8.8,0.4c-3.6,3.9-7.2,8.3-6.3,14.3c0.9,5.4-2.7,5.9-6.3,6.3
	c-4.7,0.5-2.6-3.3-2.9-5.4c-0.4-2.9-0.8-5.6-3-7.7C180.2,102.8,180.3,101.8,180.3,100.8z"/>
<path class="st57" d="M178.6,103.8c1.1,5.1,1.8,10.2,1.3,15.4c-2.2,0.5-3.8,0.5-4.1-2.6c-0.3-3-0.9-5.9-1.8-8.8
	C172.5,102.8,175.3,103.1,178.6,103.8z"/>
<path class="st58" d="M231.7,38.2c-1,0.2-2.6,1.7-2.9-0.4c-0.7-4.8,0.3-9.6,4.5-12.1c4.3-2.5,6.7,1.8,8.9,4.7
	c1.5,1.9,3.6,3.7,3.4,6.6C241.4,42.2,236.3,37.8,231.7,38.2z"/>
<path class="st59" d="M231.7,38.2c1.5-1.8,2.9-4.4,4.8-0.4c2.9-1.8,6.3,1.5,9.1-1c0,0.5,0,1.1,0,1.6c-2,2.7-5.1,3.2-7.9,4.2
	C236.1,40.7,232,42.1,231.7,38.2z"/>
<path class="st60" d="M250.2,150.5c-1.1,3.5,1.3,5.6,3,8c0.5,1,1,1.9,1.6,2.9c1.9,4.1,2.1,9.5,7.7,11c3,1.8,4.6,4.7,6,7.8
	c-2.5,0.2-5,0.3-7.6,0.5c-3,2.2-6.1,1.5-9.2,0.3c-3.2-2.9-5.2-8.1-11-5.7c-3.5,0.6-7,2.1-10.3-0.7c-1.3-2.7,1.7-3.4,2.3-5.2
	c0.6-1.3,1-2.6,2.1-3.5c0.7-0.3,1.3-0.1,1.8,0.5c2.9,3.4,6.4,2.8,10.1,1.3c-3.6-1-8.2,2-11-2.4c-1.8-3.3-1.3-6.7-0.7-10.1
	c2.8-7.2,9.2-2.6,13.7-4.4C249.2,150.5,249.7,150.5,250.2,150.5z"/>
<path class="st61" d="M235.2,165.9c-0.1,1.5-0.2,3.1-0.2,4.6c-6.9,2.4-13.9,4.7-20.1,8.9c-1.4,0.7-2.7,1.5-4.3,0.7
	c-0.1-2-0.2-4.1-0.3-6.1c1.3-2.4,3.7-3.5,5.8-4.9c3.6-1.5,5.2-4.5,5.9-8.2c0.5-2.5,0.3-5.2,2.2-7.2c0-0.4,0.1-0.9,0.2-1.3
	c1-0.4,2-0.9,3-1.3c2,2.1,1.1,4.6,0.8,7.1c-0.3,2.7-0.3,5.5,2.2,7.3c1.7-0.8,2.4-3.5,4.9-2.4C235.7,163.9,235.7,164.9,235.2,165.9z"
	/>
<path class="st60" d="M248.7,150.6c-0.5,2.8-1.1,5.1-4.6,2.6c-2.5-1.9-5-1.1-7.5,0.4c-1.5,1.1-1.7,4.1-4.6,3.3
	c-2.6-2.6-2.3-5.3-0.3-8c0.9-1.1,1.8-2.2,2.7-3.4c3.3-1.5,6.5-2,9.7,0.2C245.7,147.3,247.2,149,248.7,150.6z"/>
<path class="st62" d="M230.4,167.5c-4.2-2.1-4.9-5.7-4.2-9.9c0.4-2.2,0.8-4.4,1.2-6.6c0.4-0.3,0.9-0.7,1.3-1
	C232.8,155.4,233.1,161.3,230.4,167.5z"/>
<path class="st63" d="M230.4,167.5c-0.8-5.8,1.4-11.9-1.8-17.5c1.1-0.3,2.1-0.7,3.2-1c0.7,2.5-0.8,5.5,1.4,7.7
	c1.8,1.9,2.6,4.1,1.3,6.6C232.8,164.2,232.8,167,230.4,167.5z"/>
<path class="st64" d="M244.2,145.7c-3.2-0.1-6.5-0.1-9.7-0.2C237.8,140.8,241.1,137.6,244.2,145.7z"/>
<path class="st65" d="M251.8,179.9c3,1,6,0.8,9.1,0.6c1.1,1.7,3.8,0.5,4.5,2.7c-5.6,1.5-12.8-2.8-16.7,4.8c-1.1-0.2-1.9-0.9-2.3-1.9
	c-0.6-2.3,0.2-4.2,1.6-5.9C249.1,179.1,250.5,179.8,251.8,179.9z"/>
<path class="st60" d="M262.5,172.3c-9.8,1.7-7.8-5.3-7.7-11c2,2.2,3.9,4.3,5.9,6.5C261.3,169.3,261.9,170.8,262.5,172.3z"/>
<path class="st66" d="M180,182c0.4-1.6-0.6-5.2,2.5-4c2.6,1,7.3-0.1,7.7,3.7c0.3,2.7-1.6,6.1-5.6,6.1C181,187.7,179.9,185.3,180,182
	z"/>
<path class="st26" d="M158.6,147c5,3.2,11.1,4.6,15.3,9.2c-0.1,1-0.1,2.1-0.2,3.1c-4.5-0.2-4.5,6.3-9,6.2c3.6-5.4,1.2-8.6-4-10.3
	c-4.7-1.5-8.7-3.3-11.5-7.4c0.5-1.7,1.5-4.2,3.1-5.7C155,143.8,156,145.3,158.6,147z"/>
<path class="st26" d="M164.6,134.2c1.2,0.3,2.5,0.5,3.6,1.1c1.7,0.9,4.1,1.7,3,4.4c-0.9,2.2-2.7,2.6-5,1.7c-1.4-0.5-3-0.3-4.4-0.5
	c-0.3-2.2,0.5-4.1,1.5-5.9C163.7,134.8,164.2,134.5,164.6,134.2z"/>
<path class="st67" d="M224.2,153.6c0,7,0.8,14.3-7.8,17.2c-2-4,0-7.4,1.6-10.9c-0.3-1.5-0.6-3-1-4.5
	C219.4,154.7,221.8,154.1,224.2,153.6z"/>
<path class="st68" d="M218,159.8c1.2,3.9-0.5,7.4-1.6,10.9c-1.9,1.4-3.5,3.3-6.2,3.2c-1.5-0.8-2.9-1.6-4.4-2.4
	c0.1-0.3,0.2-0.6,0.2-1c1.8-2.1,5.3-2.8,5.4-6.4c0.4-2.1,0.2-4.4,2.2-5.9C215.2,158.6,215.6,162,218,159.8z"/>
<path class="st69" d="M213.7,158.2c-0.1,2.6-0.2,5.2-0.4,7.9c-6.8,1.6-7.1,1.3-6-6.4C208.9,156.8,210.7,154.7,213.7,158.2z"/>
<path class="st70" d="M207.3,159.7c-0.4,4.5,0.8,7.4,6,6.4c-1.3,3.4-3.4,5.4-7.2,4.5c-2.6-2.9-1.3-6-0.3-9.1
	C206.3,160.9,206.8,160.3,207.3,159.7z"/>
<path class="st71" d="M210.6,180c1-0.5,2-1.1,2.9-1.6c1.1,0.3,1.8,1,2.1,2.2c-0.4,2.9-2.2,4.5-4.9,5.2c-1.1,0.1-2.1-0.1-2.9-1
	c-0.2-0.5-0.3-1-0.5-1.5C208.4,182.2,209.5,181.1,210.6,180z"/>
<path class="st72" d="M181.3,138.1c2.2-9,7.2-14.6,17-14.1c0.1,0.7,0.2,1.4,0.3,2.1c1.3,1.1,3.3,2.2,0.4,3.6
	c-3.4,1.6-6.9,3-10.5,4.2c-2.9,1-4.5,3.1-5.5,5.8C182.5,139.1,181.9,138.6,181.3,138.1z"/>
<path class="st26" d="M175.5,152.2c-2.6-0.4-3.6-2.3-2.6-4.4c1.2-2.8,3.4-2.4,5.5-0.8c-0.5,1.6-1,3.2-1.6,4.8
	C176.4,152,175.9,152.1,175.5,152.2z"/>
<path class="st73" d="M207.8,184.8c0.9,0,1.8,0,2.7-0.1c2.1,2.2,0.1,4.7,0.7,7c0.5,1.6,2.5,1.5,3.4,2.8c1.3,1.8,2.3,4,5.2,4.4
	c1.4-3.3-1.9-9.2,4.7-9.8c0.9,1,1.1,2.2,1.5,3.4c1.7,5.8,4.1,6.6,9.1,3.4c4.4-2.8,6.7-8.3,12.2-9.8c0.5,0.6,0.9,1.1,1.4,1.7
	c-5.6,14.2-22.9,21.8-34.7,15.4C206.2,199.2,204.3,193.4,207.8,184.8z"/>
<path class="st74" d="M190.9,61.6c0.2-0.5,0.1-1-0.3-1.4c-1.8-2.3-1.4-4.9-1.2-7.5c1.2-5.8,3.8-10.7,8.5-14.3
	c4.8-3.7,8.7-2.4,10.4,3.4c1.7,5.8,0.6,11.3-2.6,16.3c-2,4.3-3.2,1.6-4.2-0.6c-2.5-5.9-4.5-4.1-6.7,0.2
	C193.9,59.4,193.7,61.9,190.9,61.6z"/>
<path class="st75" d="M190.9,61.6c3.3-0.8,1.3-3.9,2.3-5.8c1.4-2.6,2.4-5.3,5.7-5.3c3.7,0,4.2,3,4.5,5.9c0.1,0.9-0.4,2.2,1.3,2.2
	l0.6,0c-1,2.8,0.5,6.8-2.7,8.4c-3.6,1.8-7.3,0.7-10.6-1.5C190.6,64.6,189.9,63.3,190.9,61.6z"/>
<path class="st76" d="M205.2,58.7c0,0-0.6,0-0.6,0c2.6-4.7,3.4-9.7,2.8-15c-0.2-2.4-0.8-4.7-3.1-5.9c-2.8-1.4-4.8,0.5-6.8,2.1
	c-4,3.2-5.9,7.7-7.1,12.5c-1.3,0.2-2.2-0.1-1.5-1.7c0.1-4.1,2.1-7.3,4.7-10.2c3.1-3.5,6.6-7.2,11.6-4.8c4.7,2.2,5.4,7.4,4.9,12
	C209.7,51.6,209.8,56.4,205.2,58.7z"/>
<path class="st77" d="M194.8,34.5c3.5-4.8,7.7-7.1,13.6-3.3C203,29.3,199.1,32.7,194.8,34.5z"/>
<path class="st78" d="M189,50.7c0.5,0.6,1,1.1,1.5,1.7c0,2.6,0.1,5.2,0.1,7.8C185.2,57.9,187.8,54.2,189,50.7z"/>
<path class="st79" d="M195.5,109.7c-0.9-5.1,2.1-7.6,4-10.5c0.9-1.3,2.4-1.9,3.9-0.9c1.3,0.9,1,2.3,0.4,3.5
	c-2.5,4.6-0.3,5.9,3.8,5.8c1.5,0,3.3-1.1,3.7,0.9c0.4,1.8-0.7,3.9-2.5,4.3c-3.9,0.7-8,1.4-11.9,1.1
	C194.3,113.6,195.7,110.5,195.5,109.7z"/>
<path class="st80" d="M247.3,186.3c-2.9,3.3-5.6,6.7-8.7,9.7c-3.2,3-6.9,6.2-11.5,3.9c-4.3-2.2-2.4-6.8-2.7-10.5
	c-0.2-1-0.8-1.7-1.3-2.5c-2-3.4-2.8-7.1-2.2-11c2.9-1.6,5.5-4.3,9.2-2.1c3.8,1.5,7.5-0.1,11.3,0.1c4.8-0.7,7.6,1.2,7.8,6.4
	C248.5,182.2,247.9,184.3,247.3,186.3z"/>
<path class="st60" d="M236.7,166.1c2.9-0.1,5.9,0.4,8.6-1.7c2.2-1.7,4.2,0.8,4.9,2.1c1.1,2.4-1.6,4.1-3.1,3.9
	c-3.7-0.5-9.5,3.7-10.6-4.1L236.7,166.1z"/>
<path class="st81" d="M230,173.7c-3.2,0.1-6.2,1-8.7,3.3c-1.5,2.2-3.2,3.8-6.1,3.2c-0.6-0.6-1.2-1.2-1.7-1.8
	c6.1-5.6,13.4-7.9,21.4-8C234.4,173.4,231.3,172.1,230,173.7z"/>
<path class="st82" d="M249.1,180.1c-1.6-3.4-3.9-5.9-7.8-6.4c6.2-2.1,7.3-1.5,10.5,6.1C251,181.7,250,180.5,249.1,180.1z"/>
<path class="st83" d="M234.5,163.2c-0.4-2.2-0.9-4.4-1.3-6.6c1.2-0.9,1-3.5,3.4-3c0,4.2,0,8.3,0,12.5c0,0-0.2,0.2-0.2,0.2
	c-0.4-0.2-0.9-0.3-1.3-0.5C234.9,165,234.7,164.1,234.5,163.2z"/>
<path class="st84" d="M215.2,180.2c2-1.1,4-2.1,6.1-3.2c2.3,3.3,1,8.1,4.4,10.9c-3.5,2.6-4.7-2.6-7.6-2.2c-4.4,1.1-3.4,8.6-9.1,8.1
	c0.5-3,0.9-6,1.4-9.1C212.7,183.9,213.8,181.9,215.2,180.2z"/>
<path class="st85" d="M218.2,183.2c4.6-2,3.1,6.3,7.6,4.6c-0.5,0.5-0.9,1-1.4,1.5c-4.3,3.6-2.8,7.7-0.8,12.1
	c-6.1,1-9.4-1.3-10.3-7.2C211.8,189.1,216.2,186.7,218.2,183.2z"/>
<path class="st86" d="M218.2,183.2c-1.6,3.7-3.3,7.4-4.9,11c-1.4,0.4-3,2.6-4.1-0.4C213.1,191.2,213,184.8,218.2,183.2z"/>
<g>
	<path d="M148.8,245.9c0.3-1.4,0.8-2.9,1.4-4.6c0.6-1.7,1.3-3.5,2.1-5.3c0.8-1.8,1.7-3.7,2.6-5.6c1-1.9,1.9-3.7,3-5.5
		c1-1.8,2.1-3.5,3.2-5.1c1.1-1.6,2.1-3,3.2-4.3c0.3-0.3,0.7-0.8,1.1-1.3c0.5-0.5,1-1,1.5-1.6c0.6-0.5,1.2-1.1,1.8-1.6s1.2-1,1.9-1.5
		c0.6-0.4,1.2-0.8,1.8-1c0.6-0.3,1.1-0.4,1.6-0.4c0.7,0,1.3,0.1,1.9,0.4c0.6,0.2,1,0.6,1.4,1c0.4,0.4,0.7,1,0.9,1.6s0.3,1.3,0.3,2
		c0,0.3,0,0.6-0.1,0.9s-0.1,0.6-0.2,1l-3,15.3c0.3-0.4,0.6-1,1.1-1.7c0.5-0.7,1-1.5,1.6-2.4c0.6-0.9,1.2-1.8,1.9-2.8
		c0.7-1,1.3-1.9,1.9-2.8s1.2-1.7,1.8-2.5c0.5-0.7,1-1.3,1.3-1.8l0.5-0.6c0.3-0.4,0.7-0.9,1.2-1.5s1-1.2,1.5-1.8
		c0.6-0.6,1.2-1.2,1.8-1.8c0.6-0.6,1.3-1.1,1.9-1.6s1.3-0.9,1.9-1.2s1.2-0.5,1.8-0.5c0.4,0,0.8,0.1,1.1,0.3c0.3,0.2,0.5,0.5,0.7,0.8
		c0.2,0.3,0.3,0.7,0.4,1.2s0.1,0.9,0.1,1.4c0,0.8-0.1,1.5-0.2,2.3c-0.1,0.8-0.3,1.5-0.4,2.1c-0.1,0.5-0.2,1.2-0.4,2.2
		c-0.2,0.9-0.3,2-0.5,3.3c-0.2,1.2-0.4,2.6-0.7,4c-0.2,1.4-0.5,2.9-0.7,4.4s-0.5,2.9-0.7,4.4s-0.5,2.8-0.7,4
		c-0.2,1.3-0.4,2.4-0.6,3.4c-0.2,1-0.3,1.8-0.4,2.3c-0.1,0.3-0.1,0.6-0.3,1c-0.1,0.4-0.3,0.9-0.5,1.3c-0.2,0.4-0.5,0.8-0.9,1.1
		c-0.4,0.3-0.8,0.5-1.4,0.5c-0.3,0-0.6-0.1-0.8-0.3s-0.5-0.4-0.7-0.7c-0.2-0.3-0.4-0.6-0.5-0.9c-0.1-0.3-0.2-0.6-0.2-0.9l5.6-27
		c0.1-0.3,0.1-0.5,0.1-0.7c0-0.2,0.1-0.4,0.1-0.6c0-0.2,0-0.4-0.1-0.5c0-0.2-0.1-0.3-0.1-0.5c-0.1-0.2-0.1-0.3-0.2-0.4
		c-0.8,0.6-1.7,1.4-2.6,2.4c-0.9,1-1.8,2-2.8,3.2c-0.9,1.2-1.9,2.4-2.8,3.7c-0.9,1.3-1.8,2.7-2.7,4c-0.7,1-1.4,2.1-2.1,3.3
		c-0.8,1.1-1.5,2.3-2.3,3.5c-0.8,1.2-1.5,2.3-2.2,3.5c-0.7,1.2-1.4,2.3-2,3.3c-0.3,0.5-0.6,1.2-0.9,2c-0.3,0.8-0.6,1.6-1,2.4
		c-0.4,0.8-0.8,1.4-1.2,2c-0.4,0.5-0.9,0.8-1.4,0.8c-0.4,0-0.8-0.1-1-0.2c-0.3-0.1-0.5-0.3-0.7-0.5c-0.2-0.2-0.3-0.5-0.3-0.7
		c-0.1-0.3-0.1-0.6-0.1-0.9c0-0.4,0-0.8,0.1-1.3c0.1-0.4,0.2-0.8,0.3-1.2c0.4-1.6,0.8-3.2,1.2-4.8c0.4-1.6,0.8-3.2,1.3-4.9
		c0.4-1.7,0.9-3.4,1.4-5.2c0.5-1.8,0.9-3.7,1.4-5.7c0.1-0.6,0.3-1.2,0.4-1.9c0.2-0.7,0.3-1.4,0.5-2.1c0.1-0.7,0.3-1.4,0.3-2.1
		s0.1-1.3,0.1-1.8c0-0.5,0-0.9-0.1-1.1c-0.1-0.3-0.2-0.4-0.4-0.4c-0.7,0-1.4,0.3-2.1,0.8c-0.7,0.5-1.5,1.2-2.2,2
		c-0.8,0.8-1.5,1.8-2.2,2.8c-0.7,1.1-1.4,2.1-2.1,3.3c-0.7,1.1-1.3,2.2-1.9,3.3c-0.6,1.1-1.1,2.1-1.5,3c-0.1,0.2-0.2,0.4-0.4,0.8
		c-0.2,0.3-0.4,0.8-0.7,1.3c-0.3,0.6-0.6,1.3-1,2.2c-0.4,0.9-0.9,2-1.4,3.4c-0.5,1.4-1.2,3-1.9,4.9s-1.5,4.1-2.4,6.7
		c-0.2,0.4-0.4,0.8-0.8,1.1c-0.4,0.3-0.8,0.4-1.2,0.4c-0.9,0-1.6-0.3-2.1-0.8c-0.4-0.5-0.7-1.1-0.7-1.9
		C148.7,246.7,148.7,246.3,148.8,245.9z"/>
	<path d="M200.9,243.3c0.3-1.1,0.6-2.3,1-3.7c0.4-1.4,0.8-2.9,1.2-4.5c0.4-1.6,0.8-3.2,1.3-4.8c0.4-1.6,0.8-3.2,1.2-4.8
		c0-0.1,0.1-0.2,0.2-0.4c0.1-0.2,0.3-0.3,0.5-0.5c0.2-0.2,0.4-0.3,0.8-0.5c0.3-0.1,0.7-0.2,1.1-0.2c0.3,0,0.6,0,0.9,0.1
		c0.3,0.1,0.5,0.2,0.8,0.3c0.2,0.1,0.4,0.3,0.5,0.5s0.2,0.5,0.2,0.7c0,0.1,0,0.1,0,0.2s0,0.1,0,0.2l-0.8,2.9
		c-0.8,3.2-1.7,6.5-2.6,9.8c-0.9,3.3-1.7,6.5-2.5,9.8c0,0.1-0.1,0.2-0.2,0.4c-0.1,0.2-0.2,0.3-0.3,0.5c-0.1,0.2-0.3,0.3-0.5,0.4
		s-0.4,0.2-0.6,0.2c-0.5,0-0.9-0.1-1.2-0.3c-0.4-0.2-0.7-0.4-0.9-0.7c-0.3-0.3-0.4-0.6-0.6-1c-0.1-0.3-0.2-0.7-0.2-1
		c0-0.1,0-0.2,0-0.2c0-0.1,0-0.2,0.1-0.2L200.9,243.3z M207.9,215c0.1-0.4,0.3-0.8,0.5-1.4c0.2-0.5,0.6-1,1.2-1.5
		c0.3-0.2,0.6-0.3,1-0.5c0.4-0.1,0.7-0.2,0.9-0.2c0.2,0,0.4,0.1,0.5,0.2c0.2,0.1,0.4,0.3,0.5,0.4c0.2,0.2,0.3,0.4,0.5,0.6
		c0.4,0,0.7,0.2,0.9,0.5s0.2,0.6,0.2,1c0,0.3,0,0.6-0.1,0.8c-0.1,0.2-0.1,0.4-0.1,0.6c-0.1,0.4-0.3,0.7-0.6,1.1
		c-0.3,0.3-0.7,0.6-1,0.8s-0.8,0.4-1.2,0.5c-0.4,0.1-0.8,0.2-1.1,0.2c-0.4,0-0.7-0.1-1-0.2c-0.2-0.1-0.5-0.5-0.8-0.9
		c-0.2-0.3-0.3-0.5-0.3-0.6s0-0.3,0-0.4c0-0.2,0-0.4,0-0.5S207.8,215.2,207.9,215z"/>
	<path d="M214.9,237.7c0.3-1.4,0.8-2.9,1.5-4.4c0.7-1.5,1.5-3,2.4-4.4c0.9-1.4,2-2.8,3.2-4c1.2-1.2,2.5-2.2,4-3
		c0.5-0.3,1-0.4,1.5-0.6c0.6-0.1,1.1-0.2,1.7-0.2c0.6,0,1.1,0.1,1.6,0.2c0.5,0.1,0.9,0.3,1.3,0.5c0.4,0.3,0.7,0.6,0.9,1
		c0.2,0.4,0.3,0.9,0.3,1.5c0,0.4-0.1,0.9-0.2,1.3c-0.1,0.4-0.3,0.8-0.6,1.2c-0.3,0.4-0.6,0.6-0.9,0.9c-0.4,0.2-0.8,0.3-1.3,0.3
		c-0.4,0-0.8-0.1-1.1-0.2c-0.3-0.1-0.6-0.3-1-0.5c-0.2-0.1-0.3-0.2-0.5-0.3c-0.1-0.1-0.3-0.2-0.5-0.2c-0.7,0.3-1.4,0.8-2,1.3
		c-0.6,0.5-1.2,1.1-1.8,1.8c-0.5,0.7-1,1.4-1.5,2.1c-0.5,0.7-0.9,1.5-1.2,2.2s-0.7,1.5-0.9,2.2c-0.3,0.7-0.5,1.4-0.6,2
		c-0.1,0.4-0.2,0.9-0.3,1.5s-0.1,1.1-0.1,1.6c0,0.4,0,0.7,0.1,1c0.1,0.3,0.2,0.6,0.3,0.9c0.2,0.3,0.4,0.5,0.6,0.6
		c0.3,0.1,0.6,0.2,1,0.2c0.6,0,1.2-0.1,1.9-0.2c0.6-0.2,1.2-0.4,1.8-0.6c0.6-0.3,1.2-0.6,1.7-0.9c0.6-0.3,1.1-0.7,1.6-1
		c0.3-0.2,0.7-0.4,1-0.7c0.3-0.2,0.7-0.4,1-0.6c0.3-0.2,0.6-0.3,0.8-0.5c0.3-0.1,0.5-0.2,0.7-0.2c0.3,0,0.5,0.1,0.8,0.2
		s0.3,0.4,0.3,0.7c0,0.2-0.1,0.5-0.2,0.8c-0.3,0.7-0.6,1.4-1,1.9c-0.4,0.6-0.9,1.1-1.4,1.5c-0.5,0.4-1.1,0.8-1.7,1.2s-1.2,0.7-1.8,1
		c-1.1,0.6-2.2,1.1-3.4,1.4s-2.1,0.5-2.9,0.5c-0.3,0-0.5,0-0.9-0.1s-0.6-0.1-0.9-0.2c-1.4-0.6-2.5-1.5-3.2-2.6c-0.7-1.1-1-2.4-1-3.8
		c0-0.6,0-1.3,0.1-2S214.7,238.4,214.9,237.7z"/>
	<path d="M251.2,247.2c0-0.5,0.1-1.2,0.2-1.9s0.2-1.7,0.2-2.8c-0.6,0.4-1.2,1-2,1.6s-1.5,1.2-2.2,1.7c-0.8,0.5-1.5,1-2.3,1.4
		s-1.5,0.6-2.1,0.6c-0.5,0-1-0.1-1.5-0.2s-0.9-0.4-1.2-0.7c-0.9-0.8-1.6-1.5-2.1-2.3c-0.4-0.8-0.6-1.7-0.6-2.7c0-0.5,0-0.9,0.1-1.4
		c0.1-0.5,0.2-1.1,0.4-1.7c0.7-2.9,1.8-5.6,3.5-8c1.7-2.5,3.7-4.5,6.2-6.3c0.9-0.7,1.9-1.1,2.8-1.3s1.9-0.3,2.8-0.3
		c0.4,0,0.9,0,1.4,0.1c0.5,0.1,1,0.1,1.4,0.2c0.4-0.1,0.7-0.2,1-0.2c0.3,0,0.5-0.1,0.8-0.1c0.5,0,1,0.1,1.3,0.2
		c0.4,0.1,0.6,0.3,0.9,0.6c0.2,0.2,0.4,0.5,0.5,0.8c0.1,0.3,0.1,0.7,0.1,1c0,0.5-0.1,0.9-0.2,1.4s-0.3,0.9-0.4,1.3l-3.5,14.4
		c-0.1,0.8-0.1,1.5-0.2,2.2c-0.1,0.7-0.2,1.3-0.3,1.8c-0.1,0.2-0.1,0.4-0.2,0.6c-0.1,0.2-0.2,0.5-0.4,0.7c-0.2,0.2-0.4,0.4-0.7,0.6
		c-0.3,0.2-0.6,0.2-1,0.2c-0.6,0-1,0-1.3-0.1c-0.3-0.1-0.6-0.2-0.8-0.3s-0.3-0.3-0.3-0.5C251.2,247.7,251.2,247.4,251.2,247.2z
		 M242.3,238.9c-0.1,0.3-0.1,0.6-0.2,1.1c-0.1,0.5-0.1,0.9-0.1,1.4c0,0.5,0.1,0.9,0.2,1.3c0.1,0.4,0.5,0.6,0.9,0.6
		c0.8,0,1.5-0.2,2.1-0.5s1.3-0.7,1.8-1.2c0.8-0.6,1.5-1.4,2.3-2.1c0.8-0.8,1.5-1.6,2.3-2.5s1.3-1.8,1.9-2.7c0.5-0.9,0.9-1.8,1.2-2.8
		c0.1-0.5,0.3-1.1,0.4-1.8c0.1-0.7,0.1-1.3,0.1-1.9c0-0.2-0.1-0.5-0.2-0.7c-0.1-0.2-0.3-0.3-0.6-0.3c-0.9,0-1.8,0.2-2.6,0.5
		s-1.7,0.8-2.6,1.4c-0.8,0.6-1.6,1.3-2.3,2.1c-0.7,0.8-1.4,1.6-2,2.5s-1.1,1.8-1.6,2.8C242.8,237.1,242.5,238,242.3,238.9z"/>
	<path d="M283.8,225.9c-0.6,0-1.3,0.2-2,0.5c-0.7,0.3-1.5,0.7-2.2,1.2c-0.8,0.5-1.6,1.1-2.3,1.7c-0.8,0.6-1.6,1.3-2.3,2
		c-0.4,0.3-0.8,0.7-1.1,0.9c-0.4,0.3-0.7,0.5-1.1,0.6c-0.3,0.4-0.5,1-0.8,1.7c-0.3,0.7-0.5,1.4-0.8,2.2c-0.3,0.8-0.5,1.6-0.8,2.5
		c-0.2,0.8-0.4,1.6-0.6,2.4c-0.1,0.4-0.2,0.8-0.2,1.1c-0.1,0.4-0.1,0.8-0.2,1.2c-0.1,0.4-0.2,0.9-0.3,1.3c-0.1,0.5-0.2,1-0.4,1.6
		c-0.1,0.3-0.2,0.6-0.4,0.8c-0.2,0.2-0.4,0.4-0.6,0.5c-0.2,0.1-0.4,0.2-0.6,0.2c-0.2,0-0.3,0-0.5,0c-0.7,0-1.2-0.2-1.7-0.5
		c-0.4-0.3-0.6-1-0.6-1.9c0-0.3,0-0.5,0-0.8c0-0.3,0.1-0.6,0.2-0.9c0.4-1.7,0.8-3.3,1.1-4.7s0.7-2.7,1.1-3.9
		c0.4-1.2,0.8-2.3,1.1-3.4c0.4-1,0.8-2.1,1.2-3.2s0.8-2.2,1.3-3.3c0.4-1.1,0.9-2.4,1.4-3.8c0.1-0.3,0.4-0.6,0.8-0.8
		c0.5-0.2,0.9-0.3,1.5-0.3c0.7,0,1.2,0.2,1.7,0.5c0.4,0.3,0.7,0.8,0.7,1.3c0,0.1,0,0.2-0.1,0.3c0,0.1-0.1,0.3-0.2,0.5l-1.2,2.8
		c0.8-0.6,1.5-1.2,2.3-1.8c0.8-0.6,1.6-1.1,2.5-1.6c0.9-0.5,1.7-0.9,2.6-1.2c0.9-0.3,1.7-0.5,2.6-0.5c1.7,0,3.1,0.5,4,1.4
		c1,0.9,1.4,2.4,1.4,4.4c0,1.1-0.2,2.4-0.6,3.9c-0.4,1.4-0.9,3-1.4,4.6s-1.2,3.4-1.9,5.2c-0.7,1.8-1.3,3.7-1.9,5.5
		c-0.2,0.5-0.3,0.9-0.5,1.3c-0.2,0.3-0.4,0.6-0.6,0.8c-0.2,0.2-0.5,0.4-0.8,0.5c-0.3,0.1-0.7,0.1-1.1,0.1c-0.7,0-1.2-0.1-1.4-0.4
		c-0.3-0.3-0.4-0.7-0.4-1.3c0-0.5,0.1-1.1,0.2-1.9c0.2-0.7,0.4-1.6,0.6-2.4c0.3-0.9,0.6-1.8,1-2.8c0.4-1,0.8-2,1.2-3.1
		c0.3-0.8,0.7-1.7,1-2.5c0.3-0.8,0.6-1.7,0.9-2.4s0.5-1.5,0.6-2.2c0.2-0.7,0.2-1.4,0.2-2c0-0.6-0.1-1.1-0.4-1.5
		C284.9,226.1,284.5,225.9,283.8,225.9z"/>
</g>
</svg>
